<?xml version="1.0" encoding="utf-8"?>
<!-- Generator: Adobe Illustrator 16.0.0, SVG Export Plug-In . SVG Version: 6.00 Build 0)  -->
<!DOCTYPE svg PUBLIC "-//W3C//DTD SVG 1.1//EN" "http://www.w3.org/Graphics/SVG/1.1/DTD/svg11.dtd">
<svg version="1.1" id="Layer_1" xmlns="http://www.w3.org/2000/svg" xmlns:xlink="http://www.w3.org/1999/xlink" x="0px" y="0px"
	 width="476.098px" height="64.044px" viewBox="0 0 476.098 64.044" enable-background="new 0 0 476.098 64.044"
	 xml:space="preserve">
<g>
	<path fill="#FFFFFF" d="M15.546,54.363h11.147c8.605,0,12.907-2.836,12.907-8.311c0-5.377-4.596-8.312-13.591-8.312H15.546V54.363
		L15.546,54.363z M15.546,14.274v15.45h9.779c7.333,0,11.146-2.739,11.146-7.725c0-5.086-3.911-7.726-11.245-7.726H15.546
		L15.546,14.274z M0,62.676v-8.313h6.551V14.274H0V5.963h26.204c12.027,0,19.36,5.574,19.36,15.254
		c0,6.355-3.715,10.267-8.408,12.125c6.746,1.857,11.537,6.648,11.537,13.199c0,10.364-8.017,16.135-21.12,16.135H0L0,62.676z"/>
	<path fill="#FFFFFF" d="M96.216,33.146c-0.978-3.325-3.423-5.281-6.649-5.281c-7.529,0-14.667,5.573-14.667,15.742v10.756h14.471
		v8.313H57.104v-8.313h9.191V29.332H59.06v-8.311h15.742v7.04c2.64-4.89,8.018-8.409,15.156-8.409
		c8.018,0,13.004,4.596,14.471,11.146L96.216,33.146L96.216,33.146z"/>
	<path fill="#FFFFFF" d="M140.218,45.856c-2.738-0.977-6.845-1.759-10.658-1.759c-5.476,0-10.756,1.759-10.756,6.747
		c0,3.715,3.324,5.475,7.92,5.475c6.355,0,13.494-3.423,13.494-9.289V45.856L140.218,45.856z M140.218,38.427v-2.348
		c0-5.866-4.694-8.311-9.778-8.311c-4.791,0-8.898,1.956-12.223,4.986l-5.671-6.159c3.911-3.618,9.485-6.943,17.894-6.943
		c10.462,0,18.577,5.574,18.577,16.133v18.578h6.063v8.313h-14.862v-4.401c-2.249,3.619-8.311,5.77-14.276,5.77
		c-8.605,0-16.036-4.399-16.036-13.103c0-10.266,10.071-14.177,19.262-14.177C133.666,36.765,137.382,37.645,140.218,38.427
		L140.218,38.427z"/>
	<path fill="#FFFFFF" d="M191.26,12.711h-9.68V0h9.68V12.711L191.26,12.711z M207.296,54.363v8.313h-42.045v-8.313h17.405V29.332
		h-13.298v-8.311h21.902v33.342H207.296L207.296,54.363z"/>
	<path fill="#FFFFFF" d="M217.662,54.363h6.356V29.332h-5.965v-8.311h14.472v5.377c2.542-4.105,7.822-6.746,14.275-6.746
		c9.289,0,15.938,5.867,15.938,15.352v19.359h6.355v8.313h-21.609v-8.313h6.649V37.351c0-7.236-4.4-9.289-8.41-9.289
		c-6.551,0-13.102,4.889-13.102,12.418v13.884h6.648v8.313h-21.609V54.363L217.662,54.363z"/>
	<path fill="#FFFFFF" d="M280.927,29.332h-10.853v-8.311h10.853V5.963h8.604v15.059h20.239v8.311h-20.239v17.502
		c0,6.454,4.497,9.095,9.68,9.095c4.889,0,8.996-2.738,12.027-5.77l5.769,5.964c-3.813,4.107-9.68,7.921-17.796,7.921
		c-10.462,0-18.284-5.77-18.284-16.915V29.332L280.927,29.332z"/>
	<path fill="#FFFFFF" d="M363.941,33.146c-0.978-3.325-3.422-5.281-6.648-5.281c-7.528,0-14.667,5.573-14.667,15.742v10.756h14.472
		v8.313h-32.267v-8.313h9.19V29.332h-7.235v-8.311h15.743v7.04c2.64-4.89,8.018-8.409,15.154-8.409
		c8.02,0,13.005,4.596,14.473,11.146L363.941,33.146L363.941,33.146z"/>
	<path fill="#FFFFFF" d="M387.118,37.547h25.616c-1.271-5.965-6.551-9.975-12.417-9.975
		C393.668,27.572,388.584,31.68,387.118,37.547L387.118,37.547z M421.828,56.319c-4.301,4.497-11.929,7.725-20.436,7.725
		c-13.981,0-23.76-9.388-23.76-22.195c0-12.81,9.485-22.196,22.685-22.196c13.103,0,22.294,10.072,22.294,23.76v1.468h-35.886
		c1.467,6.941,7.236,11.146,14.766,11.146c6.257,0,11.635-2.542,14.568-5.768L421.828,56.319L421.828,56.319z"/>
	<path fill="#FFFFFF" d="M440.604,37.547h25.618c-1.271-5.965-6.551-9.975-12.418-9.975C447.156,27.572,442.07,31.68,440.604,37.547
		L440.604,37.547z M475.315,56.319c-4.303,4.497-11.929,7.725-20.436,7.725c-13.982,0-23.761-9.388-23.761-22.195
		c0-12.81,9.484-22.196,22.685-22.196c13.103,0,22.294,10.072,22.294,23.76v1.468h-35.885c1.467,6.941,7.236,11.146,14.765,11.146
		c6.259,0,11.636-2.542,14.569-5.768L475.315,56.319L475.315,56.319z"/>
</g>
</svg>
