<?xml version="1.0" encoding="utf-8"?>
<!-- Generator: Adobe Illustrator 16.0.0, SVG Export Plug-In . SVG Version: 6.00 Build 0)  -->
<!DOCTYPE svg PUBLIC "-//W3C//DTD SVG 1.1//EN" "http://www.w3.org/Graphics/SVG/1.1/DTD/svg11.dtd">
<svg version="1.1" id="Layer_1" xmlns="http://www.w3.org/2000/svg" xmlns:xlink="http://www.w3.org/1999/xlink" x="0px" y="0px"
	 width="100px" height="100px" viewBox="0 0 100 100" enable-background="new 0 0 100 100" xml:space="preserve">
<g>
	<path fill="#FFFFFF" d="M86.836,0H13.164C5.906,0,0,5.906,0,13.164v73.672C0,94.095,5.906,100,13.164,100h73.672
		C94.097,100,100,94.095,100,86.836V13.164C100,5.906,94.097,0,86.836,0z M75.362,5.801c1.782,0,3.228,1.446,3.228,3.23
		c0,1.782-1.445,3.229-3.228,3.229c-1.784,0-3.229-1.447-3.229-3.229C72.133,7.247,73.578,5.801,75.362,5.801z M24.638,5.801
		c1.784,0,3.229,1.446,3.229,3.23c0,1.782-1.445,3.229-3.229,3.229c-1.782,0-3.228-1.447-3.228-3.229
		C21.41,7.247,22.855,5.801,24.638,5.801z M97.605,86.836c0,5.939-4.829,10.769-10.77,10.769H13.164
		c-5.94,0-10.77-4.83-10.77-10.769V19.891h95.211V86.836z"/>
	<g>
		<polygon fill="#FFFFFF" points="63.427,56.75 68.73,56.75 70.591,47.971 81.195,31.399 75.786,31.399 69.504,42.109 
			67.957,31.399 62.167,31.399 65.289,47.971 		"/>
		<polygon fill="#FFFFFF" points="70.57,71.242 69.026,60.532 63.231,60.532 66.355,77.104 64.496,85.881 69.797,85.881 
			71.659,77.104 82.262,60.532 76.855,60.532 		"/>
		<path fill="#FFFFFF" d="M29.034,46.426h3.931c6.212,0,8.039-4.563,8.672-7.442c0.983-4.636-0.316-7.585-5.163-7.585h-9.548
			L21.555,56.75h5.301L29.034,46.426z M31.418,35.297h2.671c2.385,0,2.563,1.754,2.142,3.828c-0.387,1.685-1.828,3.405-3.407,3.405
			h-2.948L31.418,35.297z"/>
		<path fill="#FFFFFF" d="M51.133,60.532L38.738,85.881h5.23l2.633-5.617h7.234l0.211,5.617h5.582L58.12,60.532H51.133z
			 M48.497,76.367l4.741-10.955h0.07l0.246,10.955H48.497z"/>
		<path fill="#FFFFFF" d="M40.394,73.066c1.649-7.9,1.336-12.535-5.617-12.535H25.93l-5.372,25.349h8.635
			C38.253,85.881,39.551,76.964,40.394,73.066z M30.422,64.43h2.739c3.687,0,2.811,4.107,1.826,8.777
			c-1.37,6.355-2.492,8.777-5.725,8.777H26.7L30.422,64.43z"/>
		<path fill="#FFFFFF" d="M42.902,56.75l2.633-5.619h7.233l0.211,5.619h5.58l-1.509-25.351h-6.985L37.669,56.75H42.902z
			 M52.172,36.279h0.067l0.248,10.955h-5.055L52.172,36.279z"/>
	</g>
</g>
</svg>
